<svg fill="#fff" xmlns="http://www.w3.org/2000/svg" xmlns:xlink="http://www.w3.org/1999/xlink" viewBox="0 0 32 32" version="1.1" role="img" aria-labelledby="s9-svg-buffer-1" class="s9-icon s9-icon-buffer">
          <title id=" s9-svg-buffer-1">Buffer</title>
                <g>
                  <path d="M5.264 10.393c-.352-.163-.352-.428 0-.59l10.1-4.68c.35-.164.92-.164 1.273 0l10.1 4.68c.35.162.35.427 0 .59l-10.1 4.68c-.352.163-.922.163-1.274 0l-10.1-4.68zm0 5.323c-.352.163-.352.427 0 .59l10.1 4.68c.35.163.92.163 1.273 0l10.1-4.68c.35-.163.35-.427 0-.59l-2.01-.93c-.35-.164-.92-.164-1.273 0l-6.818 3.158c-.35.163-.92.163-1.273 0l-6.817-3.16c-.352-.162-.922-.162-1.273 0l-2.01.932zm0 5.89c-.352.164-.352.43 0 .592l10.1 4.68c.35.163.92.163 1.273 0l10.1-4.68c.35-.163.35-.428 0-.59l-2.01-.932c-.35-.163-.92-.163-1.273 0l-6.818 3.16c-.35.163-.92.163-1.273 0l-6.817-3.16c-.352-.163-.922-.163-1.273 0l-2.01.93z" fill-rule="evenodd"></path>
                </g>
              </svg>