<svg fill="#fff" version="1.1" id="Layer_1" xmlns="http://www.w3.org/2000/svg" xmlns:xlink="http://www.w3.org/1999/xlink" x="0px" y="0px" viewBox="0 0 32 32" style="height: 28px; width: 28px;" xml:space="preserve" aria-labelledby="s9-svg-social9-1" class="s9-icon s9-icon-social9">
                <title id="s9-svg-social9-1">Social9</title>
                <g id="icon">
                  <path fill="#ffffff" d="M17.2,26.3c-1,0-1.9-0.2-2.8-0.4c-3.1-0.9-5.5-3.2-6.6-6C5.9,19.7,4.4,18,4.4,16c0-2.2,1.8-3.9,3.9-3.9
		c2.2,0,3.9,1.8,3.9,3.9c0,1.5-0.9,2.8-2.1,3.5c1.1,2.4,3.5,4.2,6.3,4.5L17.2,26.3z"></path>
                  <path fill="#ffffff" d="M25.5,22.2c0.3,0.5,0.4,1.1,0.4,1.7c0,2.2-1.8,3.9-3.9,3.9c-2.2,0-3.9-1.8-3.9-3.9c0-2.2,1.8-3.9,3.9-3.9
		c0.7,0,1.3,0.2,1.9,0.5c1.5-2.2,1.9-5,0.8-7.6l1.8-1.6c0.3,0.8,0.7,1.6,0.9,2.5C28,16.9,27.3,19.9,25.5,22.2z"></path>
                  <path fill="#ffffff" d="M25.9,8c0,2.2-1.8,3.9-3.9,3.9c-2.1,0-3.9-1.7-3.9-3.8c0,0,0,0-0.1,0h-0.7c-2.6,0-5.1,1.3-6.6,3.5l-2.3-0.8
		c2.2-3.7,6.3-5.6,10.3-5c0.7-1,1.9-1.7,3.3-1.7C24.1,4.1,25.9,5.9,25.9,8z"></path>
                </g>
              </svg>